<svg width="36" height="36" viewBox="0 0 36 36" fill="none" xmlns="http://www.w3.org/2000/svg">
<path d="M16.2 27H19.8V19.8H27V16.2H19.8V9H16.2V16.2H9V19.8H16.2V27ZM18 36C15.51 36 13.17 35.535 10.98 34.605C8.79 33.645 6.885 32.355 5.265 30.735C3.645 29.115 2.355 27.21 1.395 25.02C0.465 22.83 0 20.49 0 18C0 15.51 0.465 13.17 1.395 10.98C2.355 8.79 3.645 6.885 5.265 5.265C6.885 3.645 8.79 2.37 10.98 1.44C13.17 0.48 15.51 0 18 0C20.49 0 22.83 0.48 25.02 1.44C27.21 2.37 29.115 3.645 30.735 5.265C32.355 6.885 33.63 8.79 34.56 10.98C35.52 13.17 36 15.51 36 18C36 20.49 35.52 22.83 34.56 25.02C33.63 27.21 32.355 29.115 30.735 30.735C29.115 32.355 27.21 33.645 25.02 34.605C22.83 35.535 20.49 36 18 36ZM18 32.4C22.02 32.4 25.425 31.005 28.215 28.215C31.005 25.425 32.4 22.02 32.4 18C32.4 13.98 31.005 10.575 28.215 7.785C25.425 4.995 22.02 3.6 18 3.6C13.98 3.6 10.575 4.995 7.785 7.785C4.995 10.575 3.6 13.98 3.6 18C3.6 22.02 4.995 25.425 7.785 28.215C10.575 31.005 13.98 32.4 18 32.4Z" fill="black"/>
</svg>
