<svg width="90" height="51" viewBox="0 0 90 51" fill="none" xmlns="http://www.w3.org/2000/svg">
<path d="M40.6892 50.5435C40.767 50.2928 41.4702 48.2791 42.2496 46.0678C43.029 43.8582 43.666 41.9308 43.666 41.7864C43.666 41.6403 43.3715 40.7223 43.0108 39.7445C40.5585 33.0874 37.5667 25.0724 36.7989 23.0936C36.2976 21.807 35.8888 20.6466 35.8888 20.5171C35.8888 20.3195 36.4051 20.288 39.0477 20.3262L42.2082 20.371L43.0654 23.0272C43.537 24.4881 44.5844 27.6605 45.3919 30.0777L46.8613 34.4703L48.986 28.0025C50.1542 24.4432 51.1884 21.2525 51.2827 20.9105L51.4565 20.288H54.612C57.5508 20.288 57.7593 20.3079 57.6501 20.5785C57.3324 21.3787 55.441 26.4553 54.1735 29.9166C53.3875 32.0615 52.5602 34.2877 52.3335 34.8621C52.1084 35.4381 51.4846 37.1564 50.9468 38.6803C50.4107 40.206 49.6611 42.3127 49.2838 43.3635C48.3439 45.9748 46.9854 49.8047 46.7686 50.4605L46.5883 51H43.5668H40.5452L40.6892 50.5435ZM6.93119 44.743C4.7817 44.4758 3.18324 43.7437 1.86773 42.4255C0.639929 41.1954 0.102146 39.9985 0.0127907 38.2968C-0.10304 36.0723 0.560503 34.457 2.30293 32.7222C3.4662 31.5651 4.73206 30.8446 6.52909 30.3217C8.25166 29.8187 11.4006 30.0677 12.8816 30.8214C13.1132 30.9393 13.469 31.0887 13.6742 31.1517L14.0465 31.2663V15.6663V0.0662197L14.907 0.00811491C15.3802 -0.0234271 15.9395 0.0396596 16.1513 0.150887C16.3631 0.260454 18.1717 1.49225 20.1723 2.89007L23.8094 5.42837V9.42757C23.8094 11.6272 23.7614 13.4749 23.7018 13.5347C23.5893 13.6476 22.9903 13.3255 19.8496 11.4645C18.8104 10.8486 17.897 10.3821 17.8226 10.4286C17.7481 10.4751 17.6869 16.3967 17.6869 23.5883C17.6869 37.9947 17.7283 37.3755 16.6395 39.4622C15.8419 40.9912 13.9207 42.8123 12.2147 43.6573C10.4789 44.5173 8.4585 44.9323 6.93119 44.743ZM64.2624 43.3668C61.9855 43.0431 60.1901 42.1782 58.7042 40.6874C57.5541 39.5336 56.4488 37.6527 56.7251 37.319C56.8277 37.1945 57.7113 36.7397 58.6876 36.3047C59.6623 35.8714 60.7461 35.3817 61.0952 35.2157L61.7273 34.9152L62.0053 35.4199C63.2547 37.7009 64.9689 38.5791 67.1482 38.0545C68.2205 37.7972 68.7781 37.3522 68.9088 36.65C69.1256 35.4979 68.5001 35.0796 64.4196 33.6436C61.2458 32.528 60.2182 32.005 58.9722 30.8695C57.5128 29.5381 57.152 28.723 57.152 26.7624C57.1537 25.3729 57.2083 25.0724 57.6153 24.2407C58.5321 22.3631 60.2331 20.952 62.52 20.1701C63.7345 19.7551 66.3688 19.6522 68.0087 19.9543C69.483 20.2282 71.5283 21.3438 72.6502 22.4876C73.6331 23.4887 74.5332 24.9595 74.3909 25.3331C74.3496 25.441 73.4328 25.9141 72.3523 26.3839C69.2447 27.7352 69.5227 27.6838 69.2232 26.965C68.0484 24.1428 63.5806 23.7875 62.9618 26.4669C62.8807 26.8172 62.9601 27.0314 63.3142 27.4231C63.6849 27.8332 64.3683 28.132 66.9149 29.0036C70.9756 30.3947 71.927 30.8728 73.221 32.1694C74.1295 33.0808 74.3082 33.368 74.6292 34.4271C74.9635 35.5294 74.98 35.7552 74.8112 36.919C74.5034 39.0339 73.4924 40.6044 71.6011 41.9059C69.7858 43.156 66.8636 43.737 64.2624 43.3668ZM83.7931 42.8538C81.546 42.4753 80.0501 41.4643 79.2128 39.7611L78.6634 38.6405L78.6154 32.0366L78.5658 25.4343H77.1676H75.7677V22.8612V20.288H77.1742H78.5807V16.8018V13.3155H81.4765H84.3722V16.8018V20.288H86.937H89.5019V22.8612V25.4343H86.937H84.3722V30.672C84.3722 36.5886 84.3855 36.6583 85.5272 37.1182C86.4224 37.4768 87.4285 37.4568 88.701 37.0568C89.2785 36.8758 89.8063 36.7264 89.8742 36.7247C89.942 36.7247 89.9983 37.9532 89.9983 39.4556C89.9983 42.6264 90.1307 42.3973 88.0738 42.7924C86.7236 43.0514 85.1053 43.0746 83.7931 42.8538ZM28.3532 42.1599C28.3102 42.0454 28.2937 35.1177 28.3168 26.7624L28.3598 11.5724L31.297 11.5276L34.2341 11.4811V26.9251V42.3674H31.3334C29.164 42.3674 28.4128 42.3143 28.3532 42.1599Z" fill="white"/>
</svg>
