<svg width="28" height="28" viewBox="0 0 28 28" fill="none" xmlns="http://www.w3.org/2000/svg">
<path d="M14.5554 0.0112571C6.82906 -0.29585 0.317084 5.71834 0.0112549 13.4446C-0.295854 21.171 5.71963 27.6816 13.4447 27.9887C21.171 28.2958 27.6817 22.2817 27.9888 14.5554C28.2947 6.82904 22.2805 0.317085 14.5554 0.0112571ZM20.4647 20.5209C20.2906 20.828 19.9515 20.9816 19.6214 20.9355C19.5203 20.9214 19.4192 20.8882 19.3245 20.8344C17.4742 19.7813 15.4575 19.0954 13.3308 18.796C11.2041 18.4966 9.07607 18.6002 7.00693 19.1031C6.55778 19.2119 6.10608 18.9368 5.99731 18.4876C5.88854 18.0385 6.16366 17.5868 6.61281 17.478C8.88797 16.9252 11.2271 16.8113 13.5637 17.1402C15.9003 17.469 18.1166 18.2227 20.1525 19.3808C20.553 19.6098 20.6937 20.1191 20.466 20.5209H20.4647ZM22.3048 16.8459C22.0194 17.3731 21.3591 17.5701 20.8319 17.2848C18.6668 16.1139 16.3226 15.3449 13.8644 14.9994C11.4063 14.6539 8.94171 14.7473 6.53731 15.2758C6.40679 15.3039 6.27755 15.309 6.15214 15.2911C5.71579 15.2297 5.34215 14.9047 5.24233 14.4479C5.11309 13.8618 5.48418 13.2821 6.07025 13.1529C8.72802 12.5681 11.4523 12.4645 14.1677 12.8458C16.8817 13.2271 19.473 14.0768 21.8659 15.3717C22.3943 15.6571 22.5901 16.3161 22.3048 16.8446V16.8459ZM24.3445 12.7025C24.0758 13.2194 23.5166 13.4869 22.9714 13.4101C22.8243 13.3896 22.6797 13.3436 22.5402 13.2719C20.0194 11.9603 17.304 11.094 14.4697 10.696C11.6353 10.2981 8.7856 10.3825 6.00115 10.9481C5.27688 11.0953 4.57182 10.6269 4.42466 9.90395C4.2775 9.17969 4.74584 8.47463 5.46883 8.32747C8.55271 7.70174 11.7057 7.60833 14.842 8.04851C17.9784 8.4887 20.9829 9.44841 23.775 10.9008C24.4302 11.2412 24.6849 12.0486 24.3445 12.7037V12.7025Z" fill="black"/>
</svg>
