<svg width="1440" height="1024" viewBox="0 0 1440 1024" fill="none" xmlns="http://www.w3.org/2000/svg">
<path d="M718.321 519.044L-107.847 1061.71" stroke="url(#paint0_linear_3_380)" stroke-opacity="0.63"/>
<path d="M718.408 519.044L18.5492 1061.91" stroke="url(#paint1_linear_3_380)" stroke-opacity="0.63"/>
<path d="M718.495 519.044L128.38 1062.08" stroke="url(#paint2_linear_3_380)" stroke-opacity="0.63"/>
<path d="M718.582 519.044L225.95 1062.23" stroke="url(#paint3_linear_3_380)" stroke-opacity="0.63"/>
<path d="M718.669 519.044L314.347 1062.37" stroke="url(#paint4_linear_3_380)" stroke-opacity="0.63"/>
<path d="M718.756 519.044L395.867 1062.5" stroke="url(#paint5_linear_3_380)" stroke-opacity="0.63"/>
<path d="M718.843 519.044L472.287 1062.62" stroke="url(#paint6_linear_3_380)" stroke-opacity="0.63"/>
<path d="M718.93 519.045L545.031 1062.73" stroke="url(#paint7_linear_3_380)" stroke-opacity="0.63"/>
<path d="M719.017 519.045L615.293 1062.84" stroke="url(#paint8_linear_3_380)" stroke-opacity="0.63"/>
<path d="M719.104 519.045L684.121 1062.95" stroke="url(#paint9_linear_3_380)" stroke-opacity="0.63"/>
<path d="M719.191 519.045L752.479 1063.05" stroke="url(#paint10_linear_3_380)" stroke-opacity="0.63"/>
<path d="M719.278 519.045L821.306 1063.16" stroke="url(#paint11_linear_3_380)" stroke-opacity="0.63"/>
<path d="M719.365 519.045L891.569 1063.27" stroke="url(#paint12_linear_3_380)" stroke-opacity="0.63"/>
<path d="M719.452 519.045L964.313 1063.38" stroke="url(#paint13_linear_3_380)" stroke-opacity="0.63"/>
<path d="M719.539 519.045L1040.73 1063.5" stroke="url(#paint14_linear_3_380)" stroke-opacity="0.63"/>
<path d="M719.626 519.046L1122.25 1063.63" stroke="url(#paint15_linear_3_380)" stroke-opacity="0.63"/>
<path d="M719.713 519.046L1210.65 1063.77" stroke="url(#paint16_linear_3_380)" stroke-opacity="0.63"/>
<path d="M719.8 519.046L1308.22 1063.92" stroke="url(#paint17_linear_3_380)" stroke-opacity="0.63"/>
<path d="M719.886 519.046L1418.05 1064.09" stroke="url(#paint18_linear_3_380)" stroke-opacity="0.63"/>
<path d="M719.973 519.046L1544.45 1064.29" stroke="url(#paint19_linear_3_380)" stroke-opacity="0.63"/>
<path d="M718.323 517.954L-106.151 -27.2865" stroke="url(#paint20_linear_3_380)" stroke-opacity="0.63"/>
<path d="M718.323 518.012L-106.281 56.0194" stroke="url(#paint21_linear_3_380)" stroke-opacity="0.63"/>
<path d="M718.322 518.069L-106.393 128.407" stroke="url(#paint22_linear_3_380)" stroke-opacity="0.63"/>
<path d="M718.322 518.126L-106.494 192.714" stroke="url(#paint23_linear_3_380)" stroke-opacity="0.63"/>
<path d="M718.322 518.184L-106.584 250.974" stroke="url(#paint24_linear_3_380)" stroke-opacity="0.63"/>
<path d="M718.322 518.241L-106.668 304.703" stroke="url(#paint25_linear_3_380)" stroke-opacity="0.63"/>
<path d="M718.322 518.298L-106.747 355.07" stroke="url(#paint26_linear_3_380)" stroke-opacity="0.63"/>
<path d="M718.322 518.356L-106.821 403.014" stroke="url(#paint27_linear_3_380)" stroke-opacity="0.63"/>
<path d="M718.322 518.413L-106.894 449.323" stroke="url(#paint28_linear_3_380)" stroke-opacity="0.63"/>
<path d="M718.322 518.47L-106.964 494.686" stroke="url(#paint29_linear_3_380)" stroke-opacity="0.63"/>
<path d="M718.322 518.527L-107.034 539.74" stroke="url(#paint30_linear_3_380)" stroke-opacity="0.63"/>
<path d="M718.322 518.585L-107.105 585.103" stroke="url(#paint31_linear_3_380)" stroke-opacity="0.63"/>
<path d="M718.322 518.642L-107.177 631.411" stroke="url(#paint32_linear_3_380)" stroke-opacity="0.63"/>
<path d="M718.321 518.699L-107.252 679.356" stroke="url(#paint33_linear_3_380)" stroke-opacity="0.63"/>
<path d="M718.321 518.757L-107.33 729.723" stroke="url(#paint34_linear_3_380)" stroke-opacity="0.63"/>
<path d="M718.321 518.814L-107.414 783.451" stroke="url(#paint35_linear_3_380)" stroke-opacity="0.63"/>
<path d="M718.321 518.871L-107.505 841.712" stroke="url(#paint36_linear_3_380)" stroke-opacity="0.63"/>
<path d="M718.321 518.929L-107.605 906.019" stroke="url(#paint37_linear_3_380)" stroke-opacity="0.63"/>
<path d="M718.321 518.986L-107.718 978.406" stroke="url(#paint38_linear_3_380)" stroke-opacity="0.63"/>
<path d="M718.321 519.043L-107.848 1061.71" stroke="url(#paint39_linear_3_380)" stroke-opacity="0.63"/>
<path d="M719.975 517.957L1546.14 -24.7117" stroke="url(#paint40_linear_3_380)" stroke-opacity="0.63"/>
<path d="M719.888 517.957L1419.75 -24.9086" stroke="url(#paint41_linear_3_380)" stroke-opacity="0.63"/>
<path d="M719.801 517.957L1309.92 -25.0797" stroke="url(#paint42_linear_3_380)" stroke-opacity="0.63"/>
<path d="M719.714 517.957L1212.35 -25.2317" stroke="url(#paint43_linear_3_380)" stroke-opacity="0.63"/>
<path d="M719.627 517.957L1123.95 -25.3695" stroke="url(#paint44_linear_3_380)" stroke-opacity="0.63"/>
<path d="M719.54 517.956L1042.43 -25.4965" stroke="url(#paint45_linear_3_380)" stroke-opacity="0.63"/>
<path d="M719.453 517.956L966.009 -25.6156" stroke="url(#paint46_linear_3_380)" stroke-opacity="0.63"/>
<path d="M719.366 517.956L893.265 -25.7289" stroke="url(#paint47_linear_3_380)" stroke-opacity="0.63"/>
<path d="M719.279 517.956L823.003 -25.8384" stroke="url(#paint48_linear_3_380)" stroke-opacity="0.63"/>
<path d="M719.192 517.956L754.175 -25.9456" stroke="url(#paint49_linear_3_380)" stroke-opacity="0.63"/>
<path d="M719.105 517.956L685.817 -26.0522" stroke="url(#paint50_linear_3_380)" stroke-opacity="0.63"/>
<path d="M719.018 517.956L616.99 -26.1594" stroke="url(#paint51_linear_3_380)" stroke-opacity="0.63"/>
<path d="M718.931 517.956L546.727 -26.2689" stroke="url(#paint52_linear_3_380)" stroke-opacity="0.63"/>
<path d="M718.845 517.955L473.983 -26.3822" stroke="url(#paint53_linear_3_380)" stroke-opacity="0.63"/>
<path d="M718.758 517.955L397.564 -26.5013" stroke="url(#paint54_linear_3_380)" stroke-opacity="0.63"/>
<path d="M718.67 517.955L316.043 -26.6283" stroke="url(#paint55_linear_3_380)" stroke-opacity="0.63"/>
<path d="M718.584 517.955L227.647 -26.7661" stroke="url(#paint56_linear_3_380)" stroke-opacity="0.63"/>
<path d="M718.497 517.955L130.076 -26.9181" stroke="url(#paint57_linear_3_380)" stroke-opacity="0.63"/>
<path d="M718.41 517.955L20.246 -27.0892" stroke="url(#paint58_linear_3_380)" stroke-opacity="0.63"/>
<path d="M718.323 517.955L-106.151 -27.2862" stroke="url(#paint59_linear_3_380)" stroke-opacity="0.63"/>
<path d="M719.973 519.046L1544.45 1064.29" stroke="url(#paint60_linear_3_380)" stroke-opacity="0.63"/>
<path d="M719.973 518.989L1544.58 980.981" stroke="url(#paint61_linear_3_380)" stroke-opacity="0.63"/>
<path d="M719.973 518.932L1544.69 908.594" stroke="url(#paint62_linear_3_380)" stroke-opacity="0.63"/>
<path d="M719.974 518.874L1544.79 844.287" stroke="url(#paint63_linear_3_380)" stroke-opacity="0.63"/>
<path d="M719.974 518.817L1544.88 786.026" stroke="url(#paint64_linear_3_380)" stroke-opacity="0.63"/>
<path d="M719.974 518.76L1544.96 732.297" stroke="url(#paint65_linear_3_380)" stroke-opacity="0.63"/>
<path d="M719.974 518.702L1545.04 681.931" stroke="url(#paint66_linear_3_380)" stroke-opacity="0.63"/>
<path d="M719.974 518.645L1545.12 633.986" stroke="url(#paint67_linear_3_380)" stroke-opacity="0.63"/>
<path d="M719.974 518.588L1545.19 587.677" stroke="url(#paint68_linear_3_380)" stroke-opacity="0.63"/>
<path d="M719.974 518.53L1545.26 542.314" stroke="url(#paint69_linear_3_380)" stroke-opacity="0.63"/>
<path d="M719.974 518.473L1545.33 497.261" stroke="url(#paint70_linear_3_380)" stroke-opacity="0.63"/>
<path d="M719.974 518.416L1545.4 451.898" stroke="url(#paint71_linear_3_380)" stroke-opacity="0.63"/>
<path d="M719.974 518.358L1545.47 405.589" stroke="url(#paint72_linear_3_380)" stroke-opacity="0.63"/>
<path d="M719.974 518.301L1545.55 357.645" stroke="url(#paint73_linear_3_380)" stroke-opacity="0.63"/>
<path d="M719.974 518.244L1545.63 307.278" stroke="url(#paint74_linear_3_380)" stroke-opacity="0.63"/>
<path d="M719.975 518.186L1545.71 253.549" stroke="url(#paint75_linear_3_380)" stroke-opacity="0.63"/>
<path d="M719.975 518.129L1545.8 195.288" stroke="url(#paint76_linear_3_380)" stroke-opacity="0.63"/>
<path d="M719.975 518.072L1545.9 130.981" stroke="url(#paint77_linear_3_380)" stroke-opacity="0.63"/>
<path d="M719.975 518.014L1546.01 58.5942" stroke="url(#paint78_linear_3_380)" stroke-opacity="0.63"/>
<path d="M719.975 517.957L1546.14 -24.7117" stroke="url(#paint79_linear_3_380)" stroke-opacity="0.63"/>
<path d="M1576 -43L-137.08 -45.6692L-138.837 1082.22L1574.24 1084.88L1576 -43Z" stroke="url(#paint80_linear_3_380)" stroke-opacity="0.63"/>
<path d="M1488.21 14.6058L-49.4679 12.2099L-51.0454 1024.61L1486.63 1027.01L1488.21 14.6058Z" stroke="url(#paint81_linear_3_380)" stroke-opacity="0.63"/>
<path d="M1405.16 69.0976L33.4079 66.9603L32.0007 970.118L1403.75 972.255L1405.16 69.0976Z" stroke="url(#paint82_linear_3_380)" stroke-opacity="0.63"/>
<path d="M1326.86 120.476L111.548 118.582L110.301 918.739L1325.62 920.633L1326.86 120.476Z" stroke="url(#paint83_linear_3_380)" stroke-opacity="0.63"/>
<path d="M1253.31 168.74L184.952 167.075L183.856 870.475L1252.21 872.14L1253.31 168.74Z" stroke="url(#paint84_linear_3_380)" stroke-opacity="0.63"/>
<path d="M1184.5 213.89L253.621 212.44L252.666 825.325L1183.54 826.775L1184.5 213.89Z" stroke="url(#paint85_linear_3_380)" stroke-opacity="0.63"/>
<path d="M1120.43 255.927L317.554 254.676L316.73 783.288L1119.61 784.539L1120.43 255.927Z" stroke="url(#paint86_linear_3_380)" stroke-opacity="0.63"/>
<path d="M1061.11 294.85L376.751 293.783L376.049 744.365L1060.41 745.432L1061.11 294.85Z" stroke="url(#paint87_linear_3_380)" stroke-opacity="0.63"/>
<path d="M1006.54 330.659L431.212 329.762L430.622 708.556L1005.95 709.453L1006.54 330.659Z" stroke="url(#paint88_linear_3_380)" stroke-opacity="0.63"/>
<path d="M956.713 363.354L480.938 362.613L480.45 675.861L956.225 676.603L956.713 363.354Z" stroke="url(#paint89_linear_3_380)" stroke-opacity="0.63"/>
<path d="M911.631 392.935L525.928 392.334L525.532 646.28L911.236 646.881L911.631 392.935Z" stroke="url(#paint90_linear_3_380)" stroke-opacity="0.63"/>
<path d="M871.295 419.403L566.181 418.927L565.868 619.812L870.982 620.288L871.295 419.403Z" stroke="url(#paint91_linear_3_380)" stroke-opacity="0.63"/>
<path d="M835.703 442.756L601.7 442.392L601.46 596.459L835.463 596.823L835.703 442.756Z" stroke="url(#paint92_linear_3_380)" stroke-opacity="0.63"/>
<path d="M804.858 462.996L632.482 462.728L632.305 576.219L804.681 576.488L804.858 462.996Z" stroke="url(#paint93_linear_3_380)" stroke-opacity="0.63"/>
<path d="M778.758 480.122L658.529 479.935L658.405 559.093L778.634 559.28L778.758 480.122Z" stroke="url(#paint94_linear_3_380)" stroke-opacity="0.63"/>
<path d="M757.403 494.134L679.84 494.013L679.76 545.081L757.323 545.202L757.403 494.134Z" stroke="url(#paint95_linear_3_380)" stroke-opacity="0.63"/>
<path d="M740.794 505.033L696.415 504.964L696.369 534.182L740.748 534.251L740.794 505.033Z" stroke="url(#paint96_linear_3_380)" stroke-opacity="0.63"/>
<path d="M728.93 512.817L708.254 512.785L708.233 526.398L728.909 526.43L728.93 512.817Z" stroke="url(#paint97_linear_3_380)" stroke-opacity="0.63"/>
<path d="M721.812 517.488L715.358 517.478L715.351 521.727L721.805 521.737L721.812 517.488Z" stroke="url(#paint98_linear_3_380)" stroke-opacity="0.63"/>
<path d="M719.439 519.045L717.726 519.042L717.724 520.171L719.437 520.174L719.439 519.045Z" stroke="url(#paint99_linear_3_380)" stroke-opacity="0.63"/>
<defs>
<linearGradient id="paint0_linear_3_380" x1="718.738" y1="519.319" x2="217.677" y2="1276.99" gradientUnits="userSpaceOnUse">
<stop stop-color="#E4E4E4"/>
<stop offset="1" stop-color="#707070"/>
</linearGradient>
<linearGradient id="paint1_linear_3_380" x1="718.844" y1="519.288" x2="320.162" y2="1230.89" gradientUnits="userSpaceOnUse">
<stop stop-color="#E4E4E4"/>
<stop offset="1" stop-color="#707070"/>
</linearGradient>
<linearGradient id="paint2_linear_3_380" x1="718.947" y1="519.257" x2="401.502" y2="1191.13" gradientUnits="userSpaceOnUse">
<stop stop-color="#E4E4E4"/>
<stop offset="1" stop-color="#707070"/>
</linearGradient>
<linearGradient id="paint3_linear_3_380" x1="719.047" y1="519.227" x2="467.257" y2="1157.43" gradientUnits="userSpaceOnUse">
<stop stop-color="#E4E4E4"/>
<stop offset="1" stop-color="#707070"/>
</linearGradient>
<linearGradient id="paint4_linear_3_380" x1="719.145" y1="519.198" x2="521.464" y2="1129.46" gradientUnits="userSpaceOnUse">
<stop stop-color="#E4E4E4"/>
<stop offset="1" stop-color="#707070"/>
</linearGradient>
<linearGradient id="paint5_linear_3_380" x1="719.24" y1="519.17" x2="567.133" y2="1106.83" gradientUnits="userSpaceOnUse">
<stop stop-color="#E4E4E4"/>
<stop offset="1" stop-color="#707070"/>
</linearGradient>
<linearGradient id="paint6_linear_3_380" x1="719.333" y1="519.141" x2="606.559" y2="1089.18" gradientUnits="userSpaceOnUse">
<stop stop-color="#E4E4E4"/>
<stop offset="1" stop-color="#707070"/>
</linearGradient>
<linearGradient id="paint7_linear_3_380" x1="719.425" y1="519.114" x2="641.551" y2="1076.22" gradientUnits="userSpaceOnUse">
<stop stop-color="#E4E4E4"/>
<stop offset="1" stop-color="#707070"/>
</linearGradient>
<linearGradient id="paint8_linear_3_380" x1="719.515" y1="519.086" x2="673.582" y2="1067.72" gradientUnits="userSpaceOnUse">
<stop stop-color="#E4E4E4"/>
<stop offset="1" stop-color="#707070"/>
</linearGradient>
<linearGradient id="paint9_linear_3_380" x1="719.604" y1="519.059" x2="703.913" y2="1063.52" gradientUnits="userSpaceOnUse">
<stop stop-color="#E4E4E4"/>
<stop offset="1" stop-color="#707070"/>
</linearGradient>
<linearGradient id="paint10_linear_3_380" x1="719.691" y1="519.032" x2="733.685" y2="1063.54" gradientUnits="userSpaceOnUse">
<stop stop-color="#E4E4E4"/>
<stop offset="1" stop-color="#707070"/>
</linearGradient>
<linearGradient id="paint11_linear_3_380" x1="719.776" y1="519.005" x2="764" y2="1067.78" gradientUnits="userSpaceOnUse">
<stop stop-color="#E4E4E4"/>
<stop offset="1" stop-color="#707070"/>
</linearGradient>
<linearGradient id="paint12_linear_3_380" x1="719.86" y1="518.978" x2="795.998" y2="1076.33" gradientUnits="userSpaceOnUse">
<stop stop-color="#E4E4E4"/>
<stop offset="1" stop-color="#707070"/>
</linearGradient>
<linearGradient id="paint13_linear_3_380" x1="719.942" y1="518.95" x2="830.94" y2="1089.34" gradientUnits="userSpaceOnUse">
<stop stop-color="#E4E4E4"/>
<stop offset="1" stop-color="#707070"/>
</linearGradient>
<linearGradient id="paint14_linear_3_380" x1="720.023" y1="518.922" x2="870.298" y2="1107.05" gradientUnits="userSpaceOnUse">
<stop stop-color="#E4E4E4"/>
<stop offset="1" stop-color="#707070"/>
</linearGradient>
<linearGradient id="paint15_linear_3_380" x1="720.102" y1="518.893" x2="915.879" y2="1129.77" gradientUnits="userSpaceOnUse">
<stop stop-color="#E4E4E4"/>
<stop offset="1" stop-color="#707070"/>
</linearGradient>
<linearGradient id="paint16_linear_3_380" x1="720.178" y1="518.864" x2="969.979" y2="1157.85" gradientUnits="userSpaceOnUse">
<stop stop-color="#E4E4E4"/>
<stop offset="1" stop-color="#707070"/>
</linearGradient>
<linearGradient id="paint17_linear_3_380" x1="720.252" y1="518.834" x2="1035.6" y2="1191.69" gradientUnits="userSpaceOnUse">
<stop stop-color="#E4E4E4"/>
<stop offset="1" stop-color="#707070"/>
</linearGradient>
<linearGradient id="paint18_linear_3_380" x1="720.323" y1="518.803" x2="1116.79" y2="1231.64" gradientUnits="userSpaceOnUse">
<stop stop-color="#E4E4E4"/>
<stop offset="1" stop-color="#707070"/>
</linearGradient>
<linearGradient id="paint19_linear_3_380" x1="720.391" y1="518.772" x2="1219.09" y2="1278" gradientUnits="userSpaceOnUse">
<stop stop-color="#E4E4E4"/>
<stop offset="1" stop-color="#707070"/>
</linearGradient>
<linearGradient id="paint20_linear_3_380" x1="717.905" y1="518.229" x2="219.207" y2="-240.998" gradientUnits="userSpaceOnUse">
<stop stop-color="#E4E4E4"/>
<stop offset="1" stop-color="#707070"/>
</linearGradient>
<linearGradient id="paint21_linear_3_380" x1="717.927" y1="518.318" x2="184.423" y2="-169.473" gradientUnits="userSpaceOnUse">
<stop stop-color="#E4E4E4"/>
<stop offset="1" stop-color="#707070"/>
</linearGradient>
<linearGradient id="paint22_linear_3_380" x1="717.955" y1="518.407" x2="145.642" y2="-103.522" gradientUnits="userSpaceOnUse">
<stop stop-color="#E4E4E4"/>
<stop offset="1" stop-color="#707070"/>
</linearGradient>
<linearGradient id="paint23_linear_3_380" x1="717.986" y1="518.497" x2="103.483" y2="-38.8125" gradientUnits="userSpaceOnUse">
<stop stop-color="#E4E4E4"/>
<stop offset="1" stop-color="#707070"/>
</linearGradient>
<linearGradient id="paint24_linear_3_380" x1="718.024" y1="518.585" x2="59.1429" y2="28.2709" gradientUnits="userSpaceOnUse">
<stop stop-color="#E4E4E4"/>
<stop offset="1" stop-color="#707070"/>
</linearGradient>
<linearGradient id="paint25_linear_3_380" x1="718.067" y1="518.671" x2="14.55" y2="100.681" gradientUnits="userSpaceOnUse">
<stop stop-color="#E4E4E4"/>
<stop offset="1" stop-color="#707070"/>
</linearGradient>
<linearGradient id="paint26_linear_3_380" x1="718.116" y1="518.754" x2="-27.5733" y2="180.52" gradientUnits="userSpaceOnUse">
<stop stop-color="#E4E4E4"/>
<stop offset="1" stop-color="#707070"/>
</linearGradient>
<linearGradient id="paint27_linear_3_380" x1="718.17" y1="518.832" x2="-63.8598" y2="268.698" gradientUnits="userSpaceOnUse">
<stop stop-color="#E4E4E4"/>
<stop offset="1" stop-color="#707070"/>
</linearGradient>
<linearGradient id="paint28_linear_3_380" x1="718.228" y1="518.904" x2="-90.7338" y2="364.602" gradientUnits="userSpaceOnUse">
<stop stop-color="#E4E4E4"/>
<stop offset="1" stop-color="#707070"/>
</linearGradient>
<linearGradient id="paint29_linear_3_380" x1="718.29" y1="518.969" x2="-105.12" y2="466.008" gradientUnits="userSpaceOnUse">
<stop stop-color="#E4E4E4"/>
<stop offset="1" stop-color="#707070"/>
</linearGradient>
<linearGradient id="paint30_linear_3_380" x1="718.352" y1="519.027" x2="-105.218" y2="569.421" gradientUnits="userSpaceOnUse">
<stop stop-color="#E4E4E4"/>
<stop offset="1" stop-color="#707070"/>
</linearGradient>
<linearGradient id="paint31_linear_3_380" x1="718.414" y1="519.076" x2="-91.0251" y2="670.856" gradientUnits="userSpaceOnUse">
<stop stop-color="#E4E4E4"/>
<stop offset="1" stop-color="#707070"/>
</linearGradient>
<linearGradient id="paint32_linear_3_380" x1="718.472" y1="519.119" x2="-64.3327" y2="766.815" gradientUnits="userSpaceOnUse">
<stop stop-color="#E4E4E4"/>
<stop offset="1" stop-color="#707070"/>
</linearGradient>
<linearGradient id="paint33_linear_3_380" x1="718.527" y1="519.155" x2="-28.2127" y2="855.063" gradientUnits="userSpaceOnUse">
<stop stop-color="#E4E4E4"/>
<stop offset="1" stop-color="#707070"/>
</linearGradient>
<linearGradient id="paint34_linear_3_380" x1="718.575" y1="519.187" x2="13.7596" y2="934.983" gradientUnits="userSpaceOnUse">
<stop stop-color="#E4E4E4"/>
<stop offset="1" stop-color="#707070"/>
</linearGradient>
<linearGradient id="paint35_linear_3_380" x1="718.619" y1="519.216" x2="58.2129" y2="1007.47" gradientUnits="userSpaceOnUse">
<stop stop-color="#E4E4E4"/>
<stop offset="1" stop-color="#707070"/>
</linearGradient>
<linearGradient id="paint36_linear_3_380" x1="718.656" y1="519.243" x2="102.419" y2="1074.63" gradientUnits="userSpaceOnUse">
<stop stop-color="#E4E4E4"/>
<stop offset="1" stop-color="#707070"/>
</linearGradient>
<linearGradient id="paint37_linear_3_380" x1="718.688" y1="519.268" x2="144.44" y2="1139.41" gradientUnits="userSpaceOnUse">
<stop stop-color="#E4E4E4"/>
<stop offset="1" stop-color="#707070"/>
</linearGradient>
<linearGradient id="paint38_linear_3_380" x1="718.715" y1="519.294" x2="183.07" y2="1205.42" gradientUnits="userSpaceOnUse">
<stop stop-color="#E4E4E4"/>
<stop offset="1" stop-color="#707070"/>
</linearGradient>
<linearGradient id="paint39_linear_3_380" x1="718.738" y1="519.319" x2="217.677" y2="1276.99" gradientUnits="userSpaceOnUse">
<stop stop-color="#E4E4E4"/>
<stop offset="1" stop-color="#707070"/>
</linearGradient>
<linearGradient id="paint40_linear_3_380" x1="719.558" y1="517.681" x2="1220.62" y2="-239.987" gradientUnits="userSpaceOnUse">
<stop stop-color="#E4E4E4"/>
<stop offset="1" stop-color="#707070"/>
</linearGradient>
<linearGradient id="paint41_linear_3_380" x1="719.452" y1="517.713" x2="1118.13" y2="-193.89" gradientUnits="userSpaceOnUse">
<stop stop-color="#E4E4E4"/>
<stop offset="1" stop-color="#707070"/>
</linearGradient>
<linearGradient id="paint42_linear_3_380" x1="719.349" y1="517.743" x2="1036.79" y2="-154.125" gradientUnits="userSpaceOnUse">
<stop stop-color="#E4E4E4"/>
<stop offset="1" stop-color="#707070"/>
</linearGradient>
<linearGradient id="paint43_linear_3_380" x1="719.249" y1="517.773" x2="971.039" y2="-120.434" gradientUnits="userSpaceOnUse">
<stop stop-color="#E4E4E4"/>
<stop offset="1" stop-color="#707070"/>
</linearGradient>
<linearGradient id="paint44_linear_3_380" x1="719.151" y1="517.803" x2="916.832" y2="-92.4604" gradientUnits="userSpaceOnUse">
<stop stop-color="#E4E4E4"/>
<stop offset="1" stop-color="#707070"/>
</linearGradient>
<linearGradient id="paint45_linear_3_380" x1="719.056" y1="517.831" x2="871.163" y2="-69.8263" gradientUnits="userSpaceOnUse">
<stop stop-color="#E4E4E4"/>
<stop offset="1" stop-color="#707070"/>
</linearGradient>
<linearGradient id="paint46_linear_3_380" x1="718.963" y1="517.859" x2="831.737" y2="-52.1795" gradientUnits="userSpaceOnUse">
<stop stop-color="#E4E4E4"/>
<stop offset="1" stop-color="#707070"/>
</linearGradient>
<linearGradient id="paint47_linear_3_380" x1="718.871" y1="517.887" x2="796.745" y2="-39.2208" gradientUnits="userSpaceOnUse">
<stop stop-color="#E4E4E4"/>
<stop offset="1" stop-color="#707070"/>
</linearGradient>
<linearGradient id="paint48_linear_3_380" x1="718.781" y1="517.914" x2="764.714" y2="-30.7185" gradientUnits="userSpaceOnUse">
<stop stop-color="#E4E4E4"/>
<stop offset="1" stop-color="#707070"/>
</linearGradient>
<linearGradient id="paint49_linear_3_380" x1="718.692" y1="517.942" x2="734.383" y2="-26.516" gradientUnits="userSpaceOnUse">
<stop stop-color="#E4E4E4"/>
<stop offset="1" stop-color="#707070"/>
</linearGradient>
<linearGradient id="paint50_linear_3_380" x1="718.606" y1="517.969" x2="704.611" y2="-26.5352" gradientUnits="userSpaceOnUse">
<stop stop-color="#E4E4E4"/>
<stop offset="1" stop-color="#707070"/>
</linearGradient>
<linearGradient id="paint51_linear_3_380" x1="718.52" y1="517.996" x2="674.296" y2="-30.7775" gradientUnits="userSpaceOnUse">
<stop stop-color="#E4E4E4"/>
<stop offset="1" stop-color="#707070"/>
</linearGradient>
<linearGradient id="paint52_linear_3_380" x1="718.436" y1="518.023" x2="642.298" y2="-39.3246" gradientUnits="userSpaceOnUse">
<stop stop-color="#E4E4E4"/>
<stop offset="1" stop-color="#707070"/>
</linearGradient>
<linearGradient id="paint53_linear_3_380" x1="718.354" y1="518.051" x2="607.356" y2="-52.3366" gradientUnits="userSpaceOnUse">
<stop stop-color="#E4E4E4"/>
<stop offset="1" stop-color="#707070"/>
</linearGradient>
<linearGradient id="paint54_linear_3_380" x1="718.273" y1="518.079" x2="567.998" y2="-70.0496" gradientUnits="userSpaceOnUse">
<stop stop-color="#E4E4E4"/>
<stop offset="1" stop-color="#707070"/>
</linearGradient>
<linearGradient id="paint55_linear_3_380" x1="718.194" y1="518.108" x2="522.417" y2="-92.7683" gradientUnits="userSpaceOnUse">
<stop stop-color="#E4E4E4"/>
<stop offset="1" stop-color="#707070"/>
</linearGradient>
<linearGradient id="paint56_linear_3_380" x1="718.118" y1="518.137" x2="468.318" y2="-120.852" gradientUnits="userSpaceOnUse">
<stop stop-color="#E4E4E4"/>
<stop offset="1" stop-color="#707070"/>
</linearGradient>
<linearGradient id="paint57_linear_3_380" x1="718.044" y1="518.167" x2="402.694" y2="-154.687" gradientUnits="userSpaceOnUse">
<stop stop-color="#E4E4E4"/>
<stop offset="1" stop-color="#707070"/>
</linearGradient>
<linearGradient id="paint58_linear_3_380" x1="717.973" y1="518.198" x2="321.51" y2="-194.644" gradientUnits="userSpaceOnUse">
<stop stop-color="#E4E4E4"/>
<stop offset="1" stop-color="#707070"/>
</linearGradient>
<linearGradient id="paint59_linear_3_380" x1="717.905" y1="518.229" x2="219.207" y2="-240.997" gradientUnits="userSpaceOnUse">
<stop stop-color="#E4E4E4"/>
<stop offset="1" stop-color="#707070"/>
</linearGradient>
<linearGradient id="paint60_linear_3_380" x1="720.391" y1="518.772" x2="1219.09" y2="1278" gradientUnits="userSpaceOnUse">
<stop stop-color="#E4E4E4"/>
<stop offset="1" stop-color="#707070"/>
</linearGradient>
<linearGradient id="paint61_linear_3_380" x1="720.368" y1="518.682" x2="1253.87" y2="1206.47" gradientUnits="userSpaceOnUse">
<stop stop-color="#E4E4E4"/>
<stop offset="1" stop-color="#707070"/>
</linearGradient>
<linearGradient id="paint62_linear_3_380" x1="720.341" y1="518.593" x2="1292.65" y2="1140.52" gradientUnits="userSpaceOnUse">
<stop stop-color="#E4E4E4"/>
<stop offset="1" stop-color="#707070"/>
</linearGradient>
<linearGradient id="paint63_linear_3_380" x1="720.309" y1="518.504" x2="1334.81" y2="1075.81" gradientUnits="userSpaceOnUse">
<stop stop-color="#E4E4E4"/>
<stop offset="1" stop-color="#707070"/>
</linearGradient>
<linearGradient id="paint64_linear_3_380" x1="720.272" y1="518.416" x2="1379.15" y2="1008.73" gradientUnits="userSpaceOnUse">
<stop stop-color="#E4E4E4"/>
<stop offset="1" stop-color="#707070"/>
</linearGradient>
<linearGradient id="paint65_linear_3_380" x1="720.229" y1="518.33" x2="1423.75" y2="936.319" gradientUnits="userSpaceOnUse">
<stop stop-color="#E4E4E4"/>
<stop offset="1" stop-color="#707070"/>
</linearGradient>
<linearGradient id="paint66_linear_3_380" x1="720.18" y1="518.247" x2="1465.87" y2="856.48" gradientUnits="userSpaceOnUse">
<stop stop-color="#E4E4E4"/>
<stop offset="1" stop-color="#707070"/>
</linearGradient>
<linearGradient id="paint67_linear_3_380" x1="720.126" y1="518.169" x2="1502.16" y2="768.303" gradientUnits="userSpaceOnUse">
<stop stop-color="#E4E4E4"/>
<stop offset="1" stop-color="#707070"/>
</linearGradient>
<linearGradient id="paint68_linear_3_380" x1="720.068" y1="518.096" x2="1529.03" y2="672.398" gradientUnits="userSpaceOnUse">
<stop stop-color="#E4E4E4"/>
<stop offset="1" stop-color="#707070"/>
</linearGradient>
<linearGradient id="paint69_linear_3_380" x1="720.006" y1="518.031" x2="1543.42" y2="570.992" gradientUnits="userSpaceOnUse">
<stop stop-color="#E4E4E4"/>
<stop offset="1" stop-color="#707070"/>
</linearGradient>
<linearGradient id="paint70_linear_3_380" x1="719.944" y1="517.974" x2="1543.51" y2="467.579" gradientUnits="userSpaceOnUse">
<stop stop-color="#E4E4E4"/>
<stop offset="1" stop-color="#707070"/>
</linearGradient>
<linearGradient id="paint71_linear_3_380" x1="719.882" y1="517.924" x2="1529.32" y2="366.144" gradientUnits="userSpaceOnUse">
<stop stop-color="#E4E4E4"/>
<stop offset="1" stop-color="#707070"/>
</linearGradient>
<linearGradient id="paint72_linear_3_380" x1="719.823" y1="517.882" x2="1502.63" y2="270.186" gradientUnits="userSpaceOnUse">
<stop stop-color="#E4E4E4"/>
<stop offset="1" stop-color="#707070"/>
</linearGradient>
<linearGradient id="paint73_linear_3_380" x1="719.769" y1="517.845" x2="1466.51" y2="181.937" gradientUnits="userSpaceOnUse">
<stop stop-color="#E4E4E4"/>
<stop offset="1" stop-color="#707070"/>
</linearGradient>
<linearGradient id="paint74_linear_3_380" x1="719.72" y1="517.813" x2="1424.54" y2="102.018" gradientUnits="userSpaceOnUse">
<stop stop-color="#E4E4E4"/>
<stop offset="1" stop-color="#707070"/>
</linearGradient>
<linearGradient id="paint75_linear_3_380" x1="719.677" y1="517.784" x2="1380.08" y2="29.5261" gradientUnits="userSpaceOnUse">
<stop stop-color="#E4E4E4"/>
<stop offset="1" stop-color="#707070"/>
</linearGradient>
<linearGradient id="paint76_linear_3_380" x1="719.64" y1="517.758" x2="1335.88" y2="-37.6338" gradientUnits="userSpaceOnUse">
<stop stop-color="#E4E4E4"/>
<stop offset="1" stop-color="#707070"/>
</linearGradient>
<linearGradient id="paint77_linear_3_380" x1="719.608" y1="517.732" x2="1293.86" y2="-102.411" gradientUnits="userSpaceOnUse">
<stop stop-color="#E4E4E4"/>
<stop offset="1" stop-color="#707070"/>
</linearGradient>
<linearGradient id="paint78_linear_3_380" x1="719.581" y1="517.707" x2="1255.23" y2="-168.418" gradientUnits="userSpaceOnUse">
<stop stop-color="#E4E4E4"/>
<stop offset="1" stop-color="#707070"/>
</linearGradient>
<linearGradient id="paint79_linear_3_380" x1="719.558" y1="517.681" x2="1220.62" y2="-239.987" gradientUnits="userSpaceOnUse">
<stop stop-color="#E4E4E4"/>
<stop offset="1" stop-color="#707070"/>
</linearGradient>
<linearGradient id="paint80_linear_3_380" x1="719.46" y1="-44.3346" x2="717.703" y2="1083.55" gradientUnits="userSpaceOnUse">
<stop stop-color="#E4E4E4"/>
<stop offset="1" stop-color="#707070"/>
</linearGradient>
<linearGradient id="paint81_linear_3_380" x1="719.37" y1="13.4078" x2="717.793" y2="1025.81" gradientUnits="userSpaceOnUse">
<stop stop-color="#E4E4E4"/>
<stop offset="1" stop-color="#707070"/>
</linearGradient>
<linearGradient id="paint82_linear_3_380" x1="719.285" y1="68.029" x2="717.878" y2="971.186" gradientUnits="userSpaceOnUse">
<stop stop-color="#E4E4E4"/>
<stop offset="1" stop-color="#707070"/>
</linearGradient>
<linearGradient id="paint83_linear_3_380" x1="719.205" y1="119.529" x2="717.958" y2="919.686" gradientUnits="userSpaceOnUse">
<stop stop-color="#E4E4E4"/>
<stop offset="1" stop-color="#707070"/>
</linearGradient>
<linearGradient id="paint84_linear_3_380" x1="719.129" y1="167.908" x2="718.033" y2="871.308" gradientUnits="userSpaceOnUse">
<stop stop-color="#E4E4E4"/>
<stop offset="1" stop-color="#707070"/>
</linearGradient>
<linearGradient id="paint85_linear_3_380" x1="719.059" y1="213.165" x2="718.104" y2="826.05" gradientUnits="userSpaceOnUse">
<stop stop-color="#E4E4E4"/>
<stop offset="1" stop-color="#707070"/>
</linearGradient>
<linearGradient id="paint86_linear_3_380" x1="718.993" y1="255.301" x2="718.17" y2="783.914" gradientUnits="userSpaceOnUse">
<stop stop-color="#E4E4E4"/>
<stop offset="1" stop-color="#707070"/>
</linearGradient>
<linearGradient id="paint87_linear_3_380" x1="718.932" y1="294.317" x2="718.23" y2="744.899" gradientUnits="userSpaceOnUse">
<stop stop-color="#E4E4E4"/>
<stop offset="1" stop-color="#707070"/>
</linearGradient>
<linearGradient id="paint88_linear_3_380" x1="718.877" y1="330.211" x2="718.286" y2="709.005" gradientUnits="userSpaceOnUse">
<stop stop-color="#E4E4E4"/>
<stop offset="1" stop-color="#707070"/>
</linearGradient>
<linearGradient id="paint89_linear_3_380" x1="718.826" y1="362.983" x2="718.338" y2="676.232" gradientUnits="userSpaceOnUse">
<stop stop-color="#E4E4E4"/>
<stop offset="1" stop-color="#707070"/>
</linearGradient>
<linearGradient id="paint90_linear_3_380" x1="718.779" y1="392.635" x2="718.384" y2="646.581" gradientUnits="userSpaceOnUse">
<stop stop-color="#E4E4E4"/>
<stop offset="1" stop-color="#707070"/>
</linearGradient>
<linearGradient id="paint91_linear_3_380" x1="718.738" y1="419.165" x2="718.425" y2="620.05" gradientUnits="userSpaceOnUse">
<stop stop-color="#E4E4E4"/>
<stop offset="1" stop-color="#707070"/>
</linearGradient>
<linearGradient id="paint92_linear_3_380" x1="718.702" y1="442.574" x2="718.462" y2="596.641" gradientUnits="userSpaceOnUse">
<stop stop-color="#E4E4E4"/>
<stop offset="1" stop-color="#707070"/>
</linearGradient>
<linearGradient id="paint93_linear_3_380" x1="718.67" y1="462.862" x2="718.493" y2="576.353" gradientUnits="userSpaceOnUse">
<stop stop-color="#E4E4E4"/>
<stop offset="1" stop-color="#707070"/>
</linearGradient>
<linearGradient id="paint94_linear_3_380" x1="718.643" y1="480.029" x2="718.52" y2="559.187" gradientUnits="userSpaceOnUse">
<stop stop-color="#E4E4E4"/>
<stop offset="1" stop-color="#707070"/>
</linearGradient>
<linearGradient id="paint95_linear_3_380" x1="718.621" y1="494.074" x2="718.542" y2="545.141" gradientUnits="userSpaceOnUse">
<stop stop-color="#E4E4E4"/>
<stop offset="1" stop-color="#707070"/>
</linearGradient>
<linearGradient id="paint96_linear_3_380" x1="718.604" y1="504.998" x2="718.559" y2="534.217" gradientUnits="userSpaceOnUse">
<stop stop-color="#E4E4E4"/>
<stop offset="1" stop-color="#707070"/>
</linearGradient>
<linearGradient id="paint97_linear_3_380" x1="718.592" y1="512.801" x2="718.571" y2="526.414" gradientUnits="userSpaceOnUse">
<stop stop-color="#E4E4E4"/>
<stop offset="1" stop-color="#707070"/>
</linearGradient>
<linearGradient id="paint98_linear_3_380" x1="718.585" y1="517.483" x2="718.578" y2="521.732" gradientUnits="userSpaceOnUse">
<stop stop-color="#E4E4E4"/>
<stop offset="1" stop-color="#707070"/>
</linearGradient>
<linearGradient id="paint99_linear_3_380" x1="718.582" y1="519.044" x2="718.581" y2="520.173" gradientUnits="userSpaceOnUse">
<stop stop-color="#E4E4E4"/>
<stop offset="1" stop-color="#707070"/>
</linearGradient>
</defs>
</svg>
